<svg width="24" height="24" viewBox="0 0 24 24" fill="none" xmlns="http://www.w3.org/2000/svg">
<mask id="mask0_14301_11000" style="mask-type:alpha" maskUnits="userSpaceOnUse" x="0" y="0" width="24" height="24">
<rect width="24" height="24" fill="#D9D9D9"/>
</mask>
<g mask="url(#mask0_14301_11000)">
<path d="M12.0006 14.6614C11.8865 14.6614 11.7759 14.6422 11.6689 14.6037C11.5618 14.5652 11.4615 14.4992 11.3679 14.4056L6.8583 9.89604C6.71343 9.75117 6.64357 9.5781 6.6487 9.37681C6.65382 9.17553 6.72882 9.00245 6.8737 8.85759C7.01857 8.71272 7.1942 8.64029 7.4006 8.64029C7.607 8.64029 7.78263 8.71272 7.9275 8.85759L12.0006 12.9307L16.0891 8.84221C16.2339 8.69734 16.407 8.62747 16.6083 8.63259C16.8096 8.63772 16.9826 8.71272 17.1275 8.85759C17.2724 9.00245 17.3448 9.1781 17.3448 9.38451C17.3448 9.59091 17.2724 9.76654 17.1275 9.91141L12.6333 14.4056C12.5397 14.4992 12.441 14.5652 12.3371 14.6037C12.2333 14.6422 12.1211 14.6614 12.0006 14.6614Z" fill="#22313F"/>
</g>
</svg>
