<svg width="36" height="36" viewBox="0 0 36 36" fill="none" xmlns="http://www.w3.org/2000/svg">
<path fill-rule="evenodd" clip-rule="evenodd" d="M29.4543 16.211H5.72705V13.8073H29.4543V16.211Z" fill="#F59F00"/>
<path d="M24.4198 10.2462C26.5084 10.2462 28.2081 11.946 28.2081 14.0346V21.392C28.2081 23.4806 26.5084 25.1804 24.4198 25.1804H10.7616C8.67302 25.1804 6.97323 23.4806 6.97323 21.392V14.0346C6.97323 11.946 8.67302 10.2462 10.7616 10.2462H24.4198ZM24.4198 9H10.7616C7.98015 9 5.72705 11.2531 5.72705 14.0346V21.392C5.72705 24.1735 7.98015 26.4266 10.7616 26.4266H24.4198C27.2012 26.4266 29.4543 24.1735 29.4543 21.392V14.0346C29.4543 11.2531 27.2012 9 24.4198 9Z" fill="#4B37E1"/>
<path d="M23.7021 23.0923C24.8611 23.0923 25.8007 22.1528 25.8007 20.9938C25.8007 19.8348 24.8611 18.8952 23.7021 18.8952C22.5431 18.8952 21.6035 19.8348 21.6035 20.9938C21.6035 22.1528 22.5431 23.0923 23.7021 23.0923Z" fill="#F59F00"/>
</svg>
